<svg width="320" height="397" viewBox="0 0 320 397" fill="none" xmlns="http://www.w3.org/2000/svg">
<circle cx="160" cy="31" r="31" fill="url(#paint0_linear)" fill-opacity="0.8"/>
<path fill-rule="evenodd" clip-rule="evenodd" d="M160 68C215.228 68 260 112.772 260 168C260 267.951 284.43 350.427 316 362.484V362.487C318.618 363.456 320 364.464 320 365.5C320 372.956 248.366 397 160 397C71.6344 397 0 372.956 0 365.5C0 364.464 1.3824 363.456 4 362.487V362.484C35.5705 350.427 60 267.951 60 168C60 112.772 104.772 68 160 68ZM135 171C135 157.193 146.193 146 160 146C173.807 146 185 157.193 185 171C185 171.939 184.948 172.866 184.847 173.779L180 262C180 273.046 171.046 282 160 282C148.954 282 140 273.046 140 262L135.153 173.779C135.052 172.866 135 171.939 135 171ZM160 322C169.389 322 177 314.389 177 305C177 295.611 169.389 288 160 288C150.611 288 143 295.611 143 305C143 314.389 150.611 322 160 322Z" fill="url(#paint1_linear)" fill-opacity="0.8"/>
<defs>
<linearGradient id="paint0_linear" x1="160" y1="0" x2="160" y2="62" gradientUnits="userSpaceOnUse">
<stop stop-color="#F4F4F4" stop-opacity="0.8"/>
<stop offset="1" stop-color="#DCDCDC" stop-opacity="0.8"/>
</linearGradient>
<linearGradient id="paint1_linear" x1="160" y1="68" x2="160" y2="397" gradientUnits="userSpaceOnUse">
<stop stop-color="#F4F4F4" stop-opacity="0.8"/>
<stop offset="1" stop-color="#DCDCDC" stop-opacity="0.8"/>
</linearGradient>
</defs>
</svg>
